<?xml version="1.0" encoding="UTF-8"?><svg id="Layer_2" xmlns="http://www.w3.org/2000/svg" viewBox="0 0 736.02 215.21"><defs><style>.cls-1{fill:#c3c4c5;stroke-width:0px;}</style></defs><g id="Layer_1-2"><path class="cls-1" d="M451.94,0c-31.87,0-60.51,13.86-80.21,35.88-.84.95-2.3.95-3.14,0C348.89,13.86,320.26,0,288.38,0c-59.43,0-107.61,48.18-107.61,107.61s48.18,107.61,107.61,107.61c31.87,0,60.51-13.86,80.21-35.88.84-.95,2.3-.95,3.14,0,19.7,22.02,48.34,35.88,80.21,35.88,59.43,0,107.61-48.18,107.61-107.61S511.38,0,451.94,0ZM451.94,163.56c-17.22,0-31.6-8.3-40.43-17.67-2.81-2.99-6.29-7.09-10.13-10.57-1.83-1.66-3.65-3.14-5.39-4.48-7.2-5.13-16.13-8.18-25.83-8.18s-18.63,3.05-25.83,8.18c-1.75,1.33-3.56,2.82-5.39,4.48-3.84,3.48-7.32,7.58-10.13,10.57-8.82,9.37-23.21,17.67-40.43,17.67-.44,0-.87-.02-1.31-.03-.74-.02-1.48-.04-2.22-.09-.51-.03-1.01-.08-1.51-.12-.3-.02-.6-.05-.89-.08-28.12-2.96-50.03-26.74-50.03-55.64v.24-.47.24c0-28.89,21.91-52.67,50.02-55.64.31-.03.63-.05.95-.09.48-.04.97-.08,1.45-.11.74-.04,1.48-.06,2.24-.09.43,0,.86-.03,1.29-.03,17.22,0,31.6,8.3,40.43,17.67,2.81,2.99,6.29,7.09,10.13,10.57,1.83,1.66,3.65,3.14,5.39,4.48,7.2,5.13,16.13,8.18,25.83,8.18s18.63-3.05,25.83-8.18c1.75-1.33,3.56-2.82,5.39-4.48,3.84-3.48,7.32-7.58,10.13-10.57,8.82-9.37,23.21-17.67,40.43-17.67.43,0,.85.02,1.28.03.75.02,1.51.04,2.25.09.47.03.95.06,1.42.11.33.02.67.05,1,.09,27.03,2.86,48.32,24.96,49.9,52.36,0,.18.02.36.03.53.02.51.03,1.02.04,1.53.01.76.02,1.52,0,2.28-.01.57-.01,1.15-.04,1.72,0,.12-.02.24-.02.36-1.52,27.45-22.83,49.63-49.91,52.49-.34.03-.68.06-1.02.09-.46.04-.93.08-1.39.11-.74.04-1.51.06-2.26.09-.43,0-.85.03-1.28.03v.02Z"/><path class="cls-1" d="M83.75,78.06l32.01,10.39c4.76,1.94,21.97,6.24,34.89,19.15,11.89,11.89,17.22,27.81,17.22,43.29,0,47.1-48.62,64.32-83.93,64.32-53.8,0-77-23.82-83.93-30.13l31.81-40.64c2.25,3.06,24.15,23.43,52.12,23.43,10.76,0,27.98-4.3,27.98-17.22,0-8.61-8.83-15.39-27.98-21.52l-32-10.41c-22.02-8.73-39.02-24.03-39.02-54.16,0-16.5,6.34-29.05,9.23-33.55C40.04,3.15,75.84,0,88.24,0c21.8,0,37.91,4.02,49.6,8.96,14.84,6.27,22.55,14.02,25.73,16.86l-26.52,33.9c-30.27-18.72-49.13-17.32-59.56-13.62-7.1,2.52-9.36,8.18-9.68,11.84-.4,4.51.32,14.28,15.96,20.11h0Z"/><path class="cls-1" d="M667.16,1.08h-86.08v213.06h51.65v-71.02h34.43c36.25,0,68.87-21.52,68.87-71.02S703.41,1.08,667.16,1.08ZM684.37,72.1c0,15.45-12.53,27.98-27.98,27.98h-23.67v-55.96h23.67c15.45,0,27.98,12.53,27.98,27.98Z"/></g></svg>