<?xml version="1.0" encoding="UTF-8"?><svg id="Layer_2" xmlns="http://www.w3.org/2000/svg" viewBox="0 0 378.77 215.21"><defs><style>.cls-1{fill:#fff;stroke-width:0px;}</style></defs><g id="Layer_1-2"><path class="cls-1" d="M271.17,0c-31.87,0-60.51,13.86-80.21,35.88-.84.95-2.3.95-3.14,0C168.11,13.86,139.48,0,107.61,0,48.18,0,0,48.18,0,107.61s48.18,107.61,107.61,107.61c31.87,0,60.51-13.86,80.21-35.88.84-.95,2.3-.95,3.14,0,19.7,22.02,48.34,35.88,80.21,35.88,59.43,0,107.61-48.18,107.61-107.61S330.6,0,271.17,0ZM271.17,163.56c-17.22,0-31.6-8.3-40.43-17.67-2.81-2.99-6.29-7.09-10.13-10.57-1.83-1.66-3.65-3.14-5.39-4.48-7.2-5.13-16.13-8.18-25.83-8.18s-18.63,3.05-25.83,8.18c-1.75,1.33-3.56,2.82-5.39,4.48-3.84,3.48-7.32,7.58-10.13,10.57-8.82,9.37-23.21,17.67-40.43,17.67-.44,0-.87-.02-1.31-.03-.74-.02-1.48-.04-2.22-.09-.51-.03-1.01-.08-1.51-.12-.3-.02-.6-.05-.89-.08-28.12-2.96-50.03-26.74-50.03-55.64v.24-.47.24c0-28.89,21.91-52.67,50.02-55.64.31-.03.63-.05.95-.09.48-.04.97-.08,1.45-.11.74-.04,1.48-.06,2.24-.09.43,0,.86-.03,1.29-.03,17.22,0,31.6,8.3,40.43,17.67,2.81,2.99,6.29,7.09,10.13,10.57,1.83,1.66,3.65,3.14,5.39,4.48,7.2,5.13,16.13,8.18,25.83,8.18s18.63-3.05,25.83-8.18c1.75-1.33,3.56-2.82,5.39-4.48,3.84-3.48,7.32-7.58,10.13-10.57,8.82-9.37,23.21-17.67,40.43-17.67.43,0,.85.02,1.28.03.75.02,1.51.04,2.25.09.47.03.95.06,1.42.11.33.02.67.05,1,.09,27.03,2.86,48.32,24.96,49.9,52.36,0,.18.02.36.03.53.02.51.03,1.02.04,1.53.01.76.02,1.52,0,2.28-.01.57-.01,1.15-.04,1.72,0,.12-.02.24-.02.36-1.52,27.45-22.83,49.63-49.91,52.49-.34.03-.68.06-1.02.09-.46.04-.93.08-1.39.11-.74.04-1.51.06-2.26.09-.43,0-.85.03-1.28.03v.02Z"/></g></svg>